<svg xmlns="http://www.w3.org/2000/svg" viewBox="0 0 264.583 264.583">
  <g transform="translate(0 -32.417)">
    <circle cx="132.292" cy="164.708" r="132.292" fill="#00bfa5" stroke-width=".423" />
    <path fill="#fff" fill-rule="evenodd" stroke-linejoin="round" stroke-width="28.222"
      d="M170.923 144.914L136.44 225.05h-21.073c-.422-3.402-1.81-12.075-4.148-26.02-2.346-13.939-3.937-23.57-4.79-28.895-1.704-13.199-2.873-21.601-3.514-25.221l-18.833 92.271H54.388L88.23 92.231h30.01c.212 2.127.747 5.476 1.6 10.054a987.65 987.65 0 012.715 15.326c.958 5.642 1.968 11.766 3.032 18.358a955.652 955.652 0 012.873 18.999c.852 6.063 1.6 11.652 2.233 16.766a801.594 801.594 0 001.599 12.128c.852-2.768 2.39-6.705 4.63-11.811a887.716 887.716 0 007.18-16.925 557.22 557.22 0 018.305-18.999c2.979-6.486 5.8-12.61 8.462-18.358 2.662-5.747 5-10.906 7.022-15.484 2.021-4.578 3.567-7.927 4.63-10.054h30.011l-7.022 144.954h-30.968c.211-2.338.423-5.853.634-10.536.21-4.684.588-9.948 1.116-15.809.535-5.853.958-11.97 1.282-18.357.317-6.381.686-12.558 1.116-18.517.43-5.958.853-11.547 1.275-16.758.43-5.22.747-9.315.958-12.294z" />
  </g>
</svg>