<svg xmlns:svg="http://www.w3.org/2000/svg" xmlns="http://www.w3.org/2000/svg" width="1000" height="1000"
  viewBox="0 0 264.58333 264.58334" version="1.1">
  <g transform="translate(0,-32.41665)">
    <rect width="264.58334" height="264.58334" x="-5.0862632e-06" y="32.416645"
      style="fill:#00bfa5;fill-opacity:1;fill-rule:evenodd;stroke-width:0.292326" />
    <g transform="matrix(0.00754221,0,0,0.00754221,47.042059,59.339872)">
      <path style="fill:#ffffff;stroke:none"
        d="M 16425,11346 11853,21971 H 9059 c -56,-451 -240,-1601 -550,-3450 -311,-1848 -522,-3125 -635,-3831 -226,-1750 -381,-2864 -466,-3344 L 4911,23580 H 974 L 5461,4361 h 3979 c 28,282 99,726 212,1333 113,607 233,1284 360,2032 127,748 261,1560 402,2434 141,875 268,1715 381,2519 113,804 212,1545 296,2223 85,677 156,1213 212,1608 113,-367 317,-889 614,-1566 296,-677 614,-1425 952,-2244 339,-818 706,-1658 1101,-2519 395,-860 769,-1672 1122,-2434 353,-762 663,-1446 931,-2053 268,-607 473,-1051 614,-1333 h 3979 l -931,19219 h -4106 c 28,-310 56,-776 84,-1397 28,-621 78,-1319 148,-2096 71,-776 127,-1587 170,-2434 42,-846 91,-1665 148,-2455 57,-790 113,-1531 169,-2222 57,-692 99,-1235 127,-1630 z" />
    </g>
  </g>
</svg>