<svg xmlns="http://www.w3.org/2000/svg" viewBox="0 0 264.583 264.583"><path fill="#00bfa5" fill-rule="evenodd" stroke-width=".292" d="M0 0h264.583v264.583H0z"/><path fill="#fff" d="M170.923 112.497l-34.483 80.136h-21.073c-.422-3.401-1.81-12.075-4.148-26.02-2.346-13.939-3.937-23.57-4.79-28.895-1.704-13.199-2.873-21.6-3.514-25.22l-18.833 92.27H54.388L88.23 59.816h30.01c.212 2.127.747 5.475 1.6 10.054a987.65 987.65 0 012.715 15.325c.958 5.642 1.968 11.766 3.032 18.358a955.652 955.652 0 012.873 18.999c.852 6.064 1.6 11.653 2.233 16.766a801.594 801.594 0 001.599 12.128c.852-2.768 2.39-6.705 4.63-11.811a887.716 887.716 0 007.18-16.925 557.22 557.22 0 018.305-18.999c2.979-6.486 5.8-12.61 8.462-18.357s5-10.906 7.022-15.484c2.021-4.579 3.567-7.927 4.63-10.054h30.011l-7.022 144.954h-30.968c.211-2.339.423-5.853.634-10.537.21-4.684.588-9.948 1.116-15.808.535-5.853.958-11.97 1.282-18.358.317-6.38.686-12.558 1.116-18.516.43-5.959.853-11.547 1.275-16.76.43-5.218.747-9.314.958-12.293z"/></svg>