<?xml version="1.0" encoding="UTF-8" standalone="no"?>
<!-- Created with Inkscape (http://www.inkscape.org/) -->

<svg
   xmlns:dc="http://purl.org/dc/elements/1.1/"
   xmlns:cc="http://creativecommons.org/ns#"
   xmlns:rdf="http://www.w3.org/1999/02/22-rdf-syntax-ns#"
   xmlns:svg="http://www.w3.org/2000/svg"
   xmlns="http://www.w3.org/2000/svg"
   xmlns:sodipodi="http://sodipodi.sourceforge.net/DTD/sodipodi-0.dtd"
   xmlns:inkscape="http://www.inkscape.org/namespaces/inkscape"
   width="1000"
   height="1000"
   viewBox="0 0 264.58333 264.58334"
   version="1.1"
   id="svg8"
   inkscape:version="0.92.3 (2405546, 2018-03-11)"
   sodipodi:docname="favicon2.svg">
  <defs
     id="defs2">
    <clipPath
       id="presentation_clip_path"
       clipPathUnits="userSpaceOnUse">
      <rect
         x="0"
         y="0"
         width="21590"
         height="27940"
         id="rect4010" />
    </clipPath>
    <clipPath
       id="presentation_clip_path-1"
       clipPathUnits="userSpaceOnUse">
      <rect
         x="0"
         y="0"
         width="21590"
         height="27940"
         id="rect4757" />
    </clipPath>
  </defs>
  <sodipodi:namedview
     id="base"
     pagecolor="#ffffff"
     bordercolor="#666666"
     borderopacity="1.0"
     inkscape:pageopacity="0"
     inkscape:pageshadow="2"
     inkscape:zoom="0.1767767"
     inkscape:cx="1583.4959"
     inkscape:cy="626.60615"
     inkscape:document-units="mm"
     inkscape:current-layer="layer1"
     showgrid="false"
     units="px"
     inkscape:pagecheckerboard="false"
     inkscape:window-width="1368"
     inkscape:window-height="849"
     inkscape:window-x="-8"
     inkscape:window-y="-8"
     inkscape:window-maximized="1"
     showguides="false" />
  <metadata
     id="metadata5">
    <rdf:RDF>
      <cc:Work
         rdf:about="">
        <dc:format>image/svg+xml</dc:format>
        <dc:type
           rdf:resource="http://purl.org/dc/dcmitype/StillImage" />
        <dc:title></dc:title>
      </cc:Work>
    </rdf:RDF>
  </metadata>
  <g
     inkscape:label="Layer 1"
     inkscape:groupmode="layer"
     id="layer1"
     transform="translate(0,-32.41665)">
    <circle
       id="path3729"
       cx="132.29167"
       cy="164.70831"
       r="92.604164"
       style="fill:#12b886;fill-opacity:1;stroke:none;stroke-width:0.27702099" />
    <text
       xml:space="preserve"
       style="font-style:normal;font-weight:normal;font-size:10.58333302px;line-height:1.25;font-family:sans-serif;letter-spacing:0px;word-spacing:0px;fill:#000000;fill-opacity:1;stroke:none;stroke-width:0.26458332"
       x="-148.92261"
       y="132.20236"
       id="text4538"><tspan
         sodipodi:role="line"
         id="tspan4536"
         x="-148.92261"
         y="141.56613"
         style="font-style:normal;font-variant:normal;font-weight:normal;font-stretch:normal;font-family:Timmana;-inkscape-font-specification:Timmana;stroke-width:0.26458332" /><tspan
         sodipodi:role="line"
         x="-148.92261"
         y="154.7953"
         style="font-style:normal;font-variant:normal;font-weight:normal;font-stretch:normal;font-family:Timmana;-inkscape-font-specification:Timmana;stroke-width:0.26458332"
         id="tspan4540" /><tspan
         sodipodi:role="line"
         x="-148.92261"
         y="168.02446"
         style="font-style:normal;font-variant:normal;font-weight:normal;font-stretch:normal;font-family:Timmana;-inkscape-font-specification:Timmana;stroke-width:0.26458332"
         id="tspan4542" /></text>
    <g
       transform="matrix(0.01011308,0,0,0.01011308,21.51668,63.04658)"
       class="SlideGroup"
       id="g4821">
      <g
         id="g4819">
        <g
           id="container-id1">
          <g
             id="id1"
             class="Slide"
             clip-path="url(#presentation_clip_path-1)">
            <g
               class="Page"
               id="g4815">
              <g
                 class="com.sun.star.drawing.ClosedBezierShape"
                 id="g4813">
                <g
                   id="id3">
                  <rect
                     style="fill:none;stroke:none"
                     class="BoundingBox"
                     x="5538"
                     y="4820"
                     width="10697"
                     height="10465"
                     id="rect4808" />
                  <path
                     style="fill:#ffffff;stroke:none"
                     inkscape:connector-curvature="0"
                     d="m 13951,8623 -2489,5785 H 9941 c -31,-246 -131,-872 -300,-1878 C 9472,11523 9357,10828 9296,10444 9173,9491 9088,8884 9042,8623 L 7682,15284 H 5539 L 7982,4820 h 2166 c 16,154 54,396 116,726 61,331 126,699 196,1107 69,407 142,848 219,1325 76,476 146,933 207,1371 61,438 115,841 161,1210 46,369 85,661 116,876 61,-200 172,-484 334,-853 161,-369 334,-776 518,-1221 185,-446 384,-903 600,-1372 215,-468 418,-910 610,-1325 192,-415 361,-787 507,-1118 146,-330 258,-572 335,-726 h 2166 l -507,10464 h -2236 c 16,-169 31,-423 46,-761 16,-338 43,-718 81,-1140 39,-423 69,-865 92,-1326 23,-461 50,-906 81,-1337 31,-430 62,-833 92,-1210 31,-376 54,-672 69,-887 z"
                     id="path4810" />
                </g>
              </g>
            </g>
          </g>
        </g>
      </g>
    </g>
  </g>
</svg>
